<svg height="18" viewBox="0 0 18 18" width="18" xmlns="http://www.w3.org/2000/svg"><path d="m8.46153846 451c-1.90382524 0-3.46153846 1.557713-3.46153846 3.461538v11.076924c0 1.903825 1.55771322 3.461538 3.46153846 3.461538h11.07692304c1.9038254 0 3.4615385-1.557713 3.4615385-3.461538v-11.076924c0-1.903825-1.5577131-3.461538-3.4615385-3.461538zm0 1.384615h11.07692304c1.1561747 0 2.0769231.920749 2.0769231 2.076923v11.076924c0 1.156174-.9207484 2.076923-2.0769231 2.076923h-2.209435v-5.584435h1.9335933l.2893639-2.228366h-2.2229572v-1.419772c0-.64523.1796318-1.084435 1.111478-1.084435h1.1899038v-1.993089c-.2063077-.027692-.9123965-.086538-1.7334734-.086538-1.7141537 0-2.8855166 1.037077-2.8855166 2.942308v1.641526l-1.703726-.005409v2.228366l1.703726.005409v5.584435h-6.54987984c-1.15617475 0-2.07692308-.920749-2.07692308-2.076923v-11.076924c0-1.156174.92074833-2.076923 2.07692308-2.076923z" fill="#fff" transform="translate(-5 -451)"/></svg>