<svg height="18" viewBox="0 0 18 18" width="18" xmlns="http://www.w3.org/2000/svg"><path d="m10.2247596 487c-2.87740383 0-5.2247596 2.347356-5.2247596 5.22476v7.55048c0 2.877404 2.34735577 5.22476 5.2247596 5.22476h7.5504808c2.8774038 0 5.2247596-2.347356 5.2247596-5.22476v-7.55048c0-2.877404-2.3473558-5.22476-5.2247596-5.22476zm0 1.384615h7.5504808c2.1283054 0 3.8401442 1.709135 3.8401442 3.840145v7.55048c0 2.128306-1.7091346 3.840145-3.8401442 3.840145h-7.5504808c-2.12830545 0-3.84014422-1.709135-3.84014422-3.840145v-7.55048c0-2.128306 1.70913462-3.840145 3.84014422-3.840145zm8.9675481 1.384616c-.5733173 0-1.0384615.465144-1.0384615 1.038461 0 .573318.4651442 1.038462 1.0384615 1.038462s1.0384615-.465144 1.0384615-1.038462c0-.573317-.4651442-1.038461-1.0384615-1.038461zm-5.1923077 1.384615c-2.6691708 0-4.84615385 2.176983-4.84615385 4.846154s2.17698305 4.846154 4.84615385 4.846154 4.8461538-2.176983 4.8461538-4.846154-2.176983-4.846154-4.8461538-4.846154zm0 1.384616c1.9200725 0 3.4615385 1.541466 3.4615385 3.461538s-1.541466 3.461538-3.4615385 3.461538c-1.9200718 0-3.4615385-1.541466-3.4615385-3.461538s1.5414667-3.461538 3.4615385-3.461538z" fill="#fff" transform="translate(-5 -487)"/></svg>