<?xml version="1.0" encoding="utf-8"?>
<!-- Generator: Adobe Illustrator 24.1.2, SVG Export Plug-In . SVG Version: 6.00 Build 0)  -->
<svg version="1.1" id="Layer_1" xmlns="http://www.w3.org/2000/svg" xmlns:xlink="http://www.w3.org/1999/xlink" x="0px" y="0px"
	 viewBox="0 0 492 492" style="enable-background:new 0 0 492 492;" xml:space="preserve">
<style type="text/css">
	.st0{fill:#FFFFFF;}
</style>
<g>
	<g>
		<path class="st0" d="M169.3,239.8l122.9,122.9c2.8,2.8,6.6,4.4,10.7,4.4c4,0,7.8-1.6,10.7-4.4l9.1-9c5.9-5.9,5.9-15.5,0-21.4
			L219.4,229.1l103.3-103.3c2.8-2.8,4.4-6.6,4.4-10.7c0-4-1.6-7.8-4.4-10.7l-9.1-9c-2.8-2.8-6.6-4.4-10.7-4.4s-7.8,1.6-10.7,4.4
			l-123,123c-2.8,2.9-4.4,6.7-4.4,10.7C164.9,233.1,166.4,236.9,169.3,239.8z"/>
	</g>
</g>
</svg>
