<svg height="20" viewBox="0 0 20 20" width="20" xmlns="http://www.w3.org/2000/svg"><path d="m810 400c2.756424 0 5.11217.977554 7.067308 2.932692s2.932692 4.310884 2.932692 7.067308-.977554 5.11217-2.932692 7.067308-4.310884 2.932692-7.067308 2.932692-5.11217-.977554-7.067308-2.932692-2.932692-4.310884-2.932692-7.067308.977554-5.11217 2.932692-7.067308 4.310884-2.932692 7.067308-2.932692zm0 19.182692c2.564115 0 4.735568-.889414 6.514423-2.668269s2.668269-3.950308 2.668269-6.514423-.889414-4.735568-2.668269-6.514423-3.950308-2.668269-6.514423-2.668269-4.735568.889414-6.514423 2.668269-2.668269 3.950308-2.668269 6.514423c0 2.532064.897427 4.695504 2.692307 6.490385 1.794881 1.79488 3.958321 2.692307 6.490385 2.692307zm3.173077-13.221154c.256411.993595.416666 2.211532.480769 3.653847h-3.269231v-3.269231c.833338-.032052 1.762816-.160255 2.788462-.384616zm-2.788462-4.326923c1.057698.320515 1.923074 1.522426 2.596154 3.60577-.705131.160257-1.570507.272435-2.596154.336538zm-3.413461 3.60577c.641029-2.051293 1.52243-3.253204 2.644231-3.60577v3.942308c-.993595-.064103-1.874997-.176281-2.644231-.336538zm9.038461-1.153847c-.801286.416669-1.570509.737179-2.307692.961539-.44872-1.442315-1.025637-2.516022-1.730769-3.221154 1.570521.384617 2.916661 1.137815 4.038461 2.259615zm-1.634615 5.528847c-.064103-1.474367-.224358-2.756405-.480769-3.846154.833337-.256412 1.698713-.624998 2.596154-1.105769 1.185903 1.442314 1.826922 3.092939 1.923077 4.951923zm-8.028846 0c.064103-1.570521.208332-2.788458.432692-3.653847.769235.192309 1.714738.320513 2.836539.384616v3.269231zm7.307692.76923c-.064103 1.442315-.224358 2.660252-.480769 3.653847-.769235-.192309-1.698713-.320513-2.788462-.384616v-3.269231zm-6.875 3.653847c-.22436-.865389-.368589-2.083326-.432692-3.653847h3.269231v3.269231c-1.121801.064103-2.067304.192307-2.836539.384616zm2.836539 4.326923c-1.121801-.352566-2.003202-1.554477-2.644231-3.60577.769234-.160257 1.650636-.272435 2.644231-.336538zm2.355769-.192308c.705132-.705132 1.282049-1.778839 1.730769-3.221154.89744.256412 1.666664.560896 2.307692.913462-1.153852 1.153852-2.499992 1.923075-4.038461 2.307692zm-3.942308-16.346154c-.67308.67308-1.249997 1.746788-1.730769 3.221154-.961543-.288463-1.730766-.592947-2.307692-.913462 1.089749-1.1218 2.435889-1.891023 4.038461-2.307692zm5.865385 12.403846c.256411-1.089749.416666-2.371787.480769-3.846154h4.038462c-.096155 1.858984-.737174 3.509609-1.923077 4.951923-.897441-.480771-1.762817-.849357-2.596154-1.105769zm-3.509616.192308c1.025647.064103 1.891023.176281 2.596154.336538-.641029 2.083344-1.506405 3.285255-2.596154 3.60577zm-4.278846-8.653846c-.352566 1.410263-.528846 2.692302-.528846 3.846154h-3.990385c.096155-1.858984.737174-3.509609 1.923077-4.951923.897441.480771 1.762817.849357 2.596154 1.105769zm-.528846 4.615384c.064103 1.474367.224358 2.756405.480769 3.846154-.769234.22436-1.618585.592946-2.548077 1.105769-1.185903-1.442314-1.826922-3.092939-1.923077-4.951923zm-1.586538 5.48077c.576926-.320515 1.346149-.624999 2.307692-.913462.480772 1.474366 1.057689 2.548074 1.730769 3.221154-1.602572-.416669-2.948712-1.185892-4.038461-2.307692z" fill="#fff" transform="translate(-800 -400)"/></svg>